<svg width="54" height="18" viewBox="0 0 54 18" fill="none" xmlns="http://www.w3.org/2000/svg">
<path d="M0.970469 1.35547H4.57984C6.68141 1.35547 8.19312 1.76953 9.115 2.59766C10.0369 3.41797 10.4978 4.46484 10.4978 5.73828C10.4978 7.11328 9.82594 8.21875 8.48219 9.05469C10.0056 9.65625 10.7673 10.8008 10.7673 12.4883C10.7673 13.8398 10.2947 14.9297 9.34937 15.7578C8.40406 16.5859 7.15797 17 5.61109 17H0.970469V1.35547ZM4.52125 4.35547V7.73047C6.10719 7.69141 6.90016 7.14062 6.90016 6.07812C6.90016 5.44531 6.70875 5.00391 6.32594 4.75391C5.95094 4.50391 5.34937 4.37109 4.52125 4.35547ZM4.52125 10.5664V13.9531C5.41969 13.9375 6.09156 13.8008 6.53687 13.543C6.99 13.2773 7.21656 12.8438 7.21656 12.2422C7.21656 11.125 6.41578 10.5664 4.81422 10.5664H4.52125ZM13.5737 1.35547H17.1245V17H13.5737V1.35547ZM20.8333 1.35547H24.97C26.6419 1.35547 27.9622 1.78516 28.9309 2.64453C29.8997 3.50391 30.3841 4.67188 30.3841 6.14844C30.3841 6.90625 30.2005 7.64062 29.8333 8.35156C29.4661 9.05469 28.9309 9.58594 28.2278 9.94531L31.0637 17H27.3137L24.4427 9.875H24.3841V17H20.8333V1.35547ZM24.3841 4.37891V8.09375C25.9544 8.0625 26.7395 7.51172 26.7395 6.44141C26.7395 5.71484 26.5559 5.19531 26.1887 4.88281C25.8294 4.57031 25.2278 4.40234 24.3841 4.37891ZM40.5625 13.3086V17.0234C39.8125 17.2656 39.1406 17.3867 38.5469 17.3867C36.4922 17.3867 34.8242 16.6172 33.543 15.0781C32.2695 13.5312 31.6328 11.5 31.6328 8.98438C31.6328 6.64844 32.2773 4.72266 33.5664 3.20703C34.8555 1.68359 36.4844 0.921875 38.4531 0.921875C39.2188 0.921875 39.9219 1.02344 40.5625 1.22656V4.95312C39.8828 4.72656 39.2422 4.61328 38.6406 4.61328C37.7188 4.61328 36.9531 5.03516 36.3438 5.87891C35.7344 6.72266 35.4297 7.79688 35.4297 9.10156C35.4297 10.5078 35.7344 11.6211 36.3438 12.4414C36.9609 13.2539 37.7812 13.6602 38.8047 13.6602C39.3047 13.6602 39.8906 13.543 40.5625 13.3086ZM53.5764 17H49.885L49.2873 14.3867H45.5373L44.9163 17H41.2952L45.4436 1.35547H49.428L53.5764 17ZM48.6077 11.5742C48.0764 9.24609 47.678 7.03125 47.4123 4.92969H47.3655C47.0842 7.09375 46.6897 9.30859 46.1819 11.5742H48.6077Z" fill="#FF8282"/>
</svg>
