<svg width="119" height="107" viewBox="0 0 119 107" fill="none" xmlns="http://www.w3.org/2000/svg">
<path d="M11.2767 106.048C8.12562 106.048 5.45839 104.957 3.27503 102.773C1.09168 100.59 0 97.9228 0 94.7717V11.2767C0 8.12563 1.09168 5.45839 3.27503 3.27503C5.45839 1.09168 8.12562 0 11.2767 0H107.248C110.399 0 113.066 1.09168 115.25 3.27503C117.433 5.45839 118.525 8.12563 118.525 11.2767V94.7717C118.525 97.9228 117.433 100.59 115.25 102.773C113.066 104.957 110.399 106.048 107.248 106.048H11.2767ZM11.2767 96.6913H107.248C107.728 96.6913 108.168 96.4914 108.568 96.0915C108.968 95.6916 109.168 95.2516 109.168 94.7717V11.2767C109.168 10.7968 108.968 10.3569 108.568 9.95689C108.168 9.55702 107.728 9.35709 107.248 9.35709H11.2767C10.7968 9.35709 10.3569 9.55702 9.95688 9.95689C9.55702 10.3569 9.35708 10.7968 9.35708 11.2767V94.7717C9.35708 95.2516 9.55702 95.6916 9.95688 96.0915C10.3569 96.4914 10.7968 96.6913 11.2767 96.6913ZM17.1549 79.6553C17.1549 81.3122 18.4981 82.6553 20.1549 82.6553H42.2263C43.8832 82.6553 45.2263 81.3122 45.2263 79.6553V76.2984C45.2263 74.6415 43.8832 73.2984 42.2263 73.2984H20.1549C18.4981 73.2984 17.1549 74.6415 17.1549 76.2984V79.6553ZM73.0483 67.3978C74.2199 68.5694 76.1194 68.5694 77.291 67.3978L101.708 42.9811C102.879 41.8095 102.879 39.91 101.708 38.7385L99.288 36.3188C98.1135 35.1443 96.2082 35.1476 95.0379 36.3263L75.8768 55.6233C75.4867 56.0162 74.8516 56.0173 74.4601 55.6258L68.4269 49.5926C67.2455 48.4112 65.3266 48.4226 64.1593 49.6178L61.8378 51.9949C60.6899 53.1703 60.701 55.0505 61.8628 56.2123L73.0483 67.3978ZM17.1549 54.7027C17.1549 56.3595 18.4981 57.7027 20.1549 57.7027H42.2263C43.8832 57.7027 45.2263 56.3595 45.2263 54.7027V51.3457C45.2263 49.6889 43.8832 48.3457 42.2263 48.3457H20.1549C18.4981 48.3457 17.1549 49.6889 17.1549 51.3457V54.7027ZM17.1549 29.75C17.1549 31.4069 18.4981 32.75 20.1549 32.75H42.2263C43.8832 32.75 45.2263 31.4069 45.2263 29.75V26.3931C45.2263 24.7362 43.8832 23.3931 42.2263 23.3931H20.1549C18.4981 23.3931 17.1549 24.7362 17.1549 26.3931V29.75Z" fill="#FF8282"/>
</svg>
