<svg width="15" height="14" viewBox="0 0 15 14" fill="none" xmlns="http://www.w3.org/2000/svg">
<path d="M6.27981 7.875V7.63874L6.12811 7.45762L0.709857 0.988943C0.65657 0.921192 0.651294 0.885236 0.650422 0.87762L0.650418 0.877587C0.649732 0.8716 0.646415 0.842636 0.680104 0.776585C0.710076 0.717823 0.736887 0.697499 0.756439 0.686472C0.780364 0.672978 0.836983 0.65 0.954345 0.65H14.0457C14.163 0.65 14.2196 0.672978 14.2436 0.686472C14.2631 0.697499 14.2899 0.717823 14.3199 0.776585C14.3536 0.842635 14.3503 0.8716 14.3496 0.877588L14.3496 0.87762C14.3487 0.885237 14.3434 0.921191 14.2901 0.988941L8.87189 7.45762L8.72019 7.63874V7.875V13.125C8.72019 13.1951 8.70362 13.2304 8.65723 13.2738L9.10135 13.7484L8.65723 13.2738C8.60849 13.3194 8.54943 13.35 8.43509 13.35H6.56491C6.45057 13.35 6.3915 13.3194 6.34277 13.2738C6.29637 13.2304 6.27981 13.1951 6.27981 13.125V7.875Z" fill="white"/>
<path d="M6.27981 7.875V7.63874L6.12811 7.45762L0.709857 0.988943C0.65657 0.921192 0.651294 0.885236 0.650422 0.87762L0.650418 0.877587C0.649732 0.8716 0.646415 0.842636 0.680104 0.776585C0.710076 0.717823 0.736887 0.697499 0.756439 0.686472C0.780364 0.672978 0.836983 0.65 0.954345 0.65H14.0457C14.163 0.65 14.2196 0.672978 14.2436 0.686472C14.2631 0.697499 14.2899 0.717823 14.3199 0.776585C14.3536 0.842635 14.3503 0.8716 14.3496 0.877588L14.3496 0.87762C14.3487 0.885237 14.3434 0.921191 14.2901 0.988941L8.87189 7.45762L8.72019 7.63874V7.875V13.125C8.72019 13.1951 8.70362 13.2304 8.65723 13.2738L9.10135 13.7484L8.65723 13.2738C8.60849 13.3194 8.54943 13.35 8.43509 13.35H6.56491C6.45057 13.35 6.3915 13.3194 6.34277 13.2738C6.29637 13.2304 6.27981 13.1951 6.27981 13.125V7.875Z" stroke="#FD7272" stroke-width="1.3"/>
<path d="M6.27981 7.875V7.63874L6.12811 7.45762L0.709857 0.988943C0.65657 0.921192 0.651294 0.885236 0.650422 0.87762L0.650418 0.877587C0.649732 0.8716 0.646415 0.842636 0.680104 0.776585C0.710076 0.717823 0.736887 0.697499 0.756439 0.686472C0.780364 0.672978 0.836983 0.65 0.954345 0.65H14.0457C14.163 0.65 14.2196 0.672978 14.2436 0.686472C14.2631 0.697499 14.2899 0.717823 14.3199 0.776585C14.3536 0.842635 14.3503 0.8716 14.3496 0.877588L14.3496 0.87762C14.3487 0.885237 14.3434 0.921191 14.2901 0.988941L8.87189 7.45762L8.72019 7.63874V7.875V13.125C8.72019 13.1951 8.70362 13.2304 8.65723 13.2738L9.10135 13.7484L8.65723 13.2738C8.60849 13.3194 8.54943 13.35 8.43509 13.35H6.56491C6.45057 13.35 6.3915 13.3194 6.34277 13.2738C6.29637 13.2304 6.27981 13.1951 6.27981 13.125V7.875Z" stroke="white" stroke-opacity="0.4" stroke-width="1.3"/>
</svg>
