<svg width="112" height="35" viewBox="0 0 112 35" fill="none" xmlns="http://www.w3.org/2000/svg">
<path d="M0.563477 1.40723H8.08301C12.4613 1.40723 15.6107 2.26986 17.5312 3.99512C19.4518 5.7041 20.4121 7.88509 20.4121 10.5381C20.4121 13.4027 19.0124 15.7057 16.2129 17.4473C19.3867 18.7005 20.9736 21.085 20.9736 24.6006C20.9736 27.4163 19.9889 29.6868 18.0195 31.4121C16.0501 33.1374 13.4541 34 10.2314 34H0.563477V1.40723ZM7.96094 7.65723V14.6885C11.265 14.6071 12.917 13.4596 12.917 11.2461C12.917 9.92773 12.5182 9.00814 11.7207 8.4873C10.9395 7.96647 9.6862 7.68978 7.96094 7.65723ZM7.96094 20.5967V27.6523C9.83268 27.6198 11.2324 27.335 12.1602 26.7979C13.1042 26.2445 13.5762 25.3411 13.5762 24.0879C13.5762 21.7604 11.9079 20.5967 8.57129 20.5967H7.96094ZM26.8203 1.40723H34.2178V34H26.8203V1.40723ZM41.9443 1.40723H50.5625C54.0456 1.40723 56.7962 2.30241 58.8145 4.09277C60.8327 5.88314 61.8418 8.31641 61.8418 11.3926C61.8418 12.9714 61.4593 14.5013 60.6943 15.9824C59.9294 17.4473 58.8145 18.554 57.3496 19.3027L63.2578 34H55.4453L49.4639 19.1562H49.3418V34H41.9443V1.40723ZM49.3418 7.70605V15.4453C52.6133 15.3802 54.249 14.2327 54.249 12.0029C54.249 10.4893 53.8665 9.4069 53.1016 8.75586C52.3529 8.10482 51.0996 7.75488 49.3418 7.70605ZM83.0469 26.3096V34.0488C81.4844 34.5534 80.0846 34.8057 78.8477 34.8057C74.5671 34.8057 71.0921 33.2025 68.4229 29.9961C65.7699 26.7734 64.4434 22.5417 64.4434 17.3008C64.4434 12.4342 65.7861 8.4222 68.4717 5.26465C71.1572 2.09082 74.5508 0.503906 78.6523 0.503906C80.2474 0.503906 81.7122 0.715495 83.0469 1.13867V8.90234C81.6309 8.43034 80.2962 8.19434 79.043 8.19434C77.1224 8.19434 75.5273 9.07324 74.2578 10.8311C72.9883 12.5889 72.3535 14.8268 72.3535 17.5449C72.3535 20.4746 72.9883 22.7939 74.2578 24.5029C75.5436 26.1956 77.2526 27.042 79.3848 27.042C80.4264 27.042 81.6471 26.7979 83.0469 26.3096ZM111.659 34H103.969L102.724 28.5557H94.9111L93.6172 34H86.0732L94.7158 1.40723H103.017L111.659 34ZM101.308 22.6963C100.201 17.846 99.3708 13.2318 98.8174 8.85352H98.7197C98.1338 13.362 97.3118 17.9762 96.2539 22.6963H101.308Z" fill="#FF8282"/>
</svg>
