<svg width="19" height="17" viewBox="0 0 19 17" fill="none" xmlns="http://www.w3.org/2000/svg">
<path d="M17.689 17L12.2634 12.1455C11.6414 12.605 10.926 12.9646 10.1174 13.2244C9.30877 13.4841 8.47224 13.6139 7.60779 13.6139C5.4815 13.6139 3.68197 12.9552 2.20918 11.6378C0.736393 10.3204 0 8.71069 0 6.80872C0 4.90674 0.736207 3.29645 2.20862 1.97786C3.68103 0.659286 5.48011 0 7.60586 0C9.73158 0 11.5313 0.65888 13.005 1.97664C14.4787 3.29439 15.2156 4.9045 15.2156 6.80697C15.2156 7.60183 15.0665 8.36102 14.7682 9.08453C14.47 9.80804 14.072 10.4374 13.5744 10.9725L19 15.827L17.689 17ZM7.60779 11.9443C9.2107 11.9443 10.5684 11.4467 11.6809 10.4513C12.7933 9.45593 13.3496 8.24115 13.3496 6.80697C13.3496 5.37278 12.7933 4.15801 11.6809 3.16264C10.5684 2.16727 9.2107 1.66959 7.60779 1.66959C6.00487 1.66959 4.64718 2.16727 3.53471 3.16264C2.42226 4.15801 1.86604 5.37278 1.86604 6.80697C1.86604 8.24115 2.42226 9.45593 3.53471 10.4513C4.64718 11.4467 6.00487 11.9443 7.60779 11.9443Z" fill="#FD7272"/>
</svg>
