<svg width="117" height="160" viewBox="0 0 117 160" fill="none" xmlns="http://www.w3.org/2000/svg">
<path d="M7.99687 109.412C5.33125 104.808 3.33203 100.082 1.99922 95.2355C0.666406 90.3889 0 85.4212 0 80.3322C0 64.0962 5.63416 50.2834 16.9025 38.8939C28.1708 27.5044 41.923 21.8097 58.1591 21.8097H59.4313L47.7995 10.1778L57.9773 0L87.0569 29.0795L57.9773 58.1591L47.7995 47.9812L59.4313 36.3494H58.1591C46.0426 36.3494 35.7436 40.6205 27.2621 49.1626C18.7805 57.7047 14.5398 68.0946 14.5398 80.3322C14.5398 83.4825 14.9033 86.5722 15.6303 89.6013C16.3572 92.6304 17.4477 95.599 18.9017 98.5069L7.99687 109.412ZM58.3408 159.937L29.2613 130.858L58.3408 101.778L68.5187 111.956L56.8869 123.588H58.1591C70.2756 123.588 80.5746 119.317 89.0561 110.775C97.5376 102.233 101.778 91.8429 101.778 79.6052C101.778 76.455 101.415 73.3653 100.688 70.3361C99.9609 67.307 98.8704 64.3385 97.4165 61.4305L108.321 50.5257C110.987 55.13 112.986 59.8554 114.319 64.702C115.652 69.5486 116.318 74.5163 116.318 79.6052C116.318 95.8413 110.684 109.654 99.4157 121.044C88.1474 132.433 74.3952 138.128 58.1591 138.128H56.8869L68.5187 149.76L58.3408 159.937Z" fill="#FF8282"/>
</svg>
